<svg xmlns="http://www.w3.org/2000/svg" viewBox="0 0 206 206"><defs><style>.cls-1{fill:#ff6700;stroke-width:8px;}.cls-1,.cls-2,.cls-3,.cls-4{stroke:#000;stroke-miterlimit:10;}.cls-2,.cls-4{fill:none;}.cls-2,.cls-3{stroke-width:3px;}.cls-3{fill:#095605;}.cls-4{stroke-width:10px;}</style></defs><title>carrot</title><g id="Layer_2" data-name="Layer 2"><g id="icons"><g id="carrot"><path id="carrot-2" data-name="carrot" class="cls-1" d="M64,58s28-26,56-2c16,17,7,45,7,45s19,16,16,33c0,0,15,12,11,27,0,0,11,14,8,18s-26,20-42,18-13-19-13-19-19-10-14-28c0,0-22-6-20-34C73,116,31,92,64,58Z"/><g id="details"><path class="cls-2" d="M73,116s35-4,54-15"/><path class="cls-2" d="M93,150s33,2,50-16"/><path class="cls-2" d="M107,178s29,2,47-17"/></g><path id="vegetation" class="cls-3" d="M54,71,20,49,42,24,56,37l2-21L83,7l9,14L111,6l21,4L114,54S83,30,54,71Z"/><circle id="outline" class="cls-4" cx="103" cy="103" r="98"/></g></g></g></svg>