<svg xmlns="http://www.w3.org/2000/svg" viewBox="0 0 206 206"><defs><style>.cls-1{fill:#fff;}.cls-2{fill:none;stroke:#000;stroke-miterlimit:10;stroke-width:10px;}</style></defs><title>eye</title><g id="Layer_2" data-name="Layer 2"><g id="icons"><g id="eye"><g id="vertical"><path d="M102,5.5a132.58,132.58,0,0,1,18.13,12.19A141.21,141.21,0,0,1,133.9,29.88a126.41,126.41,0,0,1,10.69,12.19,111.27,111.27,0,0,1,8.22,12.19c9.42,16.25,13.13,32.5,12.65,48.75s-4.89,32.5-14.38,48.75c-1.21,2-2.43,4.06-3.85,6.09-.7,1-1.36,2-2.09,3l-2.25,3a142.57,142.57,0,0,1-10.46,12.19,155.71,155.71,0,0,1-13.17,12.19A140.51,140.51,0,0,1,102,200.5h-1a140.51,140.51,0,0,1-17.26-12.19,155.71,155.71,0,0,1-13.17-12.19,142.57,142.57,0,0,1-10.46-12.19l-2.25-3c-.73-1-1.39-2-2.09-3-1.41-2-2.64-4.06-3.85-6.09C42.43,135.5,38.06,119.25,37.55,103s3.23-32.5,12.65-48.75a111.28,111.28,0,0,1,8.22-12.19A126.4,126.4,0,0,1,69.1,29.88,141.21,141.21,0,0,1,82.87,17.69,132.58,132.58,0,0,1,101,5.5Z"/><path class="cls-1" d="M102,5.5a101.46,101.46,0,0,1,12.45,12.19,127.71,127.71,0,0,1,22.36,36.56A123.56,123.56,0,0,1,145.47,103a137.78,137.78,0,0,1-9.85,48.75c-1.68,4.06-3.48,8.13-5.61,12.19s-4.49,8.13-7.16,12.19a137.25,137.25,0,0,1-9,12.19A106.62,106.62,0,0,1,102,200.5h-1a106.62,106.62,0,0,1-11.82-12.19,137.25,137.25,0,0,1-9-12.19c-2.67-4.06-5-8.12-7.16-12.19s-3.93-8.12-5.61-12.19A137.78,137.78,0,0,1,57.53,103a123.56,123.56,0,0,1,8.66-48.75A127.71,127.71,0,0,1,88.55,17.69,101.47,101.47,0,0,1,101,5.5Z"/></g><g id="horizontal_large"><path d="M5,102.5A132.58,132.58,0,0,1,17.19,84.37,141.21,141.21,0,0,1,29.38,70.6,126.4,126.4,0,0,1,41.56,59.92a111.28,111.28,0,0,1,12.19-8.22C70,42.28,86.25,38.56,102.5,39s32.5,4.89,48.75,14.38c2,1.21,4.06,2.43,6.09,3.85,1,.7,2,1.36,3,2.09l3,2.25a142.57,142.57,0,0,1,12.19,10.46,155.71,155.71,0,0,1,12.19,13.17A140.51,140.51,0,0,1,200,102.5v1a140.51,140.51,0,0,1-12.19,17.26,155.71,155.71,0,0,1-12.19,13.17,142.57,142.57,0,0,1-12.19,10.46l-3,2.25c-1,.73-2,1.39-3,2.09-2,1.41-4.06,2.64-6.09,3.85C135,162.07,118.75,166.44,102.5,167S70,163.72,53.75,154.31a111.28,111.28,0,0,1-12.19-8.22A126.4,126.4,0,0,1,29.38,135.4a141.21,141.21,0,0,1-12.19-13.77A132.58,132.58,0,0,1,5,103.5Z"/><path class="cls-1" d="M5,102.5A101.47,101.47,0,0,1,17.19,90.05,127.71,127.71,0,0,1,53.75,67.69,123.56,123.56,0,0,1,102.5,59a137.78,137.78,0,0,1,48.75,9.85c4.06,1.68,8.13,3.48,12.19,5.61s8.13,4.49,12.19,7.16a137.24,137.24,0,0,1,12.19,9A106.63,106.63,0,0,1,200,102.5v1a106.63,106.63,0,0,1-12.19,11.82,137.24,137.24,0,0,1-12.19,9c-4.06,2.67-8.12,5-12.19,7.16s-8.12,3.93-12.19,5.61A137.78,137.78,0,0,1,102.5,147a123.56,123.56,0,0,1-48.75-8.66,127.71,127.71,0,0,1-36.56-22.36A101.47,101.47,0,0,1,5,103.5Z"/></g><g id="horizontal_small"><path d="M101,58l2.7.71,2.39.71,4.78,1.42,4.29,1.42c1.4.47,2.65.95,4,1.42l2,.71,1.79.71,3.57,1.42c2.21.95,4.32,1.9,6.44,2.84a94.42,94.42,0,0,1,18.9,11.38c9.43,7.58,13.15,15.17,12.66,22.75s-4.88,15.17-14.39,22.75a99,99,0,0,1-18.67,11.38l-3,1.42-1.51.71-1.68.71-3.36,1.42c-.54.24-1.15.47-1.77.71l-1.85.71c-1.25.47-2.41.95-3.81,1.42l-2,.71c-.69.24-1.29.47-2.08.71l-4.49,1.42-2.27.71L101,149h-1l-2.54-.71-2.27-.71-4.49-1.42c-.79-.24-1.39-.47-2.08-.71l-2-.71c-1.39-.47-2.56-.95-3.81-1.42L81,142.6c-.63-.24-1.24-.47-1.77-.71l-3.36-1.42-1.68-.71L72.63,139l-3-1.42a99,99,0,0,1-18.67-11.38c-9.51-7.58-13.88-15.17-14.39-22.75S39.77,88.33,49.2,80.75a94.42,94.42,0,0,1,18.9-11.37c2.12-.95,4.23-1.9,6.44-2.84l3.57-1.42,1.79-.71,2-.71c1.33-.47,2.57-.95,4-1.42l4.29-1.42,4.78-1.42,2.39-.71L100,58Z"/><path class="cls-1" d="M101,58l1.85.71,1.64.71,3.27,1.42,2.94,1.42c1,.47,1.81.95,2.72,1.42l1.35.71,1.22.71,2.45,1.42c1.51.95,3,1.9,4.42,2.84A66.11,66.11,0,0,1,135.8,80.75c6.47,7.58,9,15.17,8.67,22.75s-3.34,15.17-9.86,22.75a69.65,69.65,0,0,1-12.79,11.38,98.77,98.77,0,0,1-9,5.69c-1.64.95-3.5,1.9-5.41,2.84l-3.08,1.42-1.55.71L101,149h-1l-1.74-.71-1.55-.71-3.08-1.42c-1.91-.95-3.77-1.9-5.41-2.84a98.76,98.76,0,0,1-9-5.69,69.65,69.65,0,0,1-12.79-11.38c-6.51-7.58-9.51-15.17-9.86-22.75s2.21-15.17,8.67-22.75A66.11,66.11,0,0,1,78.15,69.37c1.46-.95,2.9-1.9,4.42-2.84L85,65.11l1.22-.71,1.35-.71c.91-.47,1.76-.95,2.72-1.42l2.94-1.42,3.27-1.42,1.64-.71L100,58Z"/></g><circle id="outline" class="cls-2" cx="103" cy="103" r="98"/><circle id="dot" cx="101" cy="103" r="8.67"/></g></g></g></svg>