<svg xmlns="http://www.w3.org/2000/svg" viewBox="0 0 206 206"><defs><style>.cls-1{fill:#fff;stroke-width:10px;}.cls-1,.cls-4{stroke:#000;stroke-miterlimit:10;}.cls-2{fill:#e28a8f;}.cls-3{fill:#05541b;}.cls-4{fill:none;}</style></defs><title>pepe</title><g id="Layer_2" data-name="Layer 2"><g id="icons"><g id="pepe"><circle id="outline" class="cls-1" cx="103" cy="103" r="98"/><path id="lips" class="cls-2" d="M74.43,143.43l9.45,1.22,14.78,1.52,7,1.52,7.16,1.52,17.22,1.68,25.76,1.83h10.52s6.71-.46,8.54-6.86-1.52-4.42,2.9-7,4.12-6.25,4.12-6.25-.3-3-1.52-3.51-.3-1.68-3.2-.46-13.26,5.33-17.68,5.64-6.86,1.68-21.19.76a242.07,242.07,0,0,1-30.94-4.57l-5.79-1.83L85.1,127.42a16.67,16.67,0,0,0-9.91,1.37c-4.88,2.44-3.81,9-3.81,9S71.54,142.67,74.43,143.43Z"/><path id="skin" class="cls-3" d="M18.19,123.31s.3-6.25,8.23-21,9.75-18.9,9.75-18.9S39.53,72.55,47,71l3.35.15a78.13,78.13,0,0,1,12-24.23A44,44,0,0,1,87.09,33.38s16.46-1.68,27.74,8.08c0,0,.66,1.63,3.86-.15s19-7.72,26.83-4.88,11.13,6.35,11.13,6.35,6.81,9.3,6.81,13.51c0,0,8.69,2,11.69,5.44s3.71,4.52,3.71,4.52l4.52,2.59s2,3,1.68,4.83l2,1.93s1.3.84,1.45,1.83a3.89,3.89,0,0,1-.84,2.29L179,76.06s-7.62-2.21-19.2-.53A109.62,109.62,0,0,0,138,81.24s-1.52.15-1.75-1.14.23-3.43-2.29-3.43-12.73.15-17.22,1.45-20.58,5.94-34.29,6.17c0,0-2.13,2,10.52,7.47s28,2.44,28,2.44,8.54-2.67,11.2-4.19,2.21-1.68,5.33.38S151.33,94,155.9,93.66a109.64,109.64,0,0,0,24.16-3.58s7-2.82,4.8.46c0,0-.08,3.28-4.8,4,0,0-5.79,8-12,10.29,0,0-2.06-1.75,5.56,7.85,6.55,9.68,4.88,15.7,4.88,15.7s-16.69,7.7-34.67,7a206.81,206.81,0,0,1-35.82-5s-2-1.52-19.66-2.74c-16.38-2.59-16.77,7.09-16.77,7.09s-.15,7.24,1.52,8.46c0,0,28.58,3.2,29.95,3.81s10.14,2.36,16.16,2.82,36,2.67,36,2.67l6.48.15s-6.71,7.62-16.31,10.75-22.33,7.7-37.11,6.48c0,0-38.1-1.52-45.57-4.34S41,162.33,28.48,151,18.19,123.31,18.19,123.31Z"/><path id="silhouette" class="cls-4" d="M48.52,84S51,37.35,88.76,33.38c18.9-.3,27.43,9.14,27.43,9.14s37.49-22.25,47.25,14c0,0,11.89,1.52,15.55,10.06,0,0,6.1,1.52,5.79,6.1,0,0,1.68,2.74,2.67,3.28a2.54,2.54,0,0,1,.61,3.35s3.43,6.48-2.82,9.37c0,0,.15,5.84-5.44,5.94,0,0-4.88,8.13-12.4,10.36,0,0,11.48,10.06,11.69,23,0,0,8.54,5.59-3.76,12.5,0,0,2.44,13.72-13,12.09,0,0-18.7,21.64-66.25,16.77C43.65,167.2,29.32,152,29.32,152S8.79,135.2,23.43,108.37,38.67,77.48,38.67,77.48s4.67-6.91,11-6.71Z"/><g id="eyes_outline"><path class="cls-4" d="M73.22,57.77S98,40.29,120.77,58c0,0,11-4.88,42.68-1.42"/><path class="cls-4" d="M116.2,42.53s6.6,9.14,5.89,14.94"/><path class="cls-4" d="M120.77,58s8.43,7.42,9.65,7.72,3.86,3.35,3.56,5-1.22,1.63-2.95,1-10.26-4-22.56-1.22L71.69,78.7S71,84,75.45,84.59s23.57-2,23.57-2S119.55,77.08,122.8,77s12.7-.2,12.7-.2,4,9.75-2.85,12.8S121.38,96.79,99,93.94c0,0-11.69-3.35-17-9"/><path class="cls-4" d="M136.82,81.55S170.66,67.73,188,80.12"/><path class="cls-4" d="M134.39,88.46s11.89,11.58,50.86.25"/><path class="cls-4" d="M75.35,74.84s1.73,1.83,14.23-5.18,36.38-6.2,38.71-5.28"/><path class="cls-4" d="M134.39,70.37s11.69-10,44.61-3.76"/><path class="cls-4" d="M134.69,73.42s30.48-12.29,51,1.22"/><path class="cls-4" d="M82.06,91.91s19.41,11.28,48.77,4.88c0,0,5.28-2.24,5-7.21"/><path class="cls-4" d="M102.07,111.12s18.59-6.91,22.35-10"/><path class="cls-4" d="M139,103.6s12.09,5.79,12.29,6.4"/><path class="cls-4" d="M167.41,105c-6.6,2.95-19.92,2.54-19.92,2.54"/></g><g id="mouth_outline"><path class="cls-4" d="M62.55,143.43a12.49,12.49,0,0,0,12.12,9.37"/><path class="cls-4" d="M179.09,128c-20.78,9.25-30.13,7.06-37.29,7.37s-32.62-4-35.82-5.49-23-2.44-23-2.44S72.3,126.2,71.54,135.2,75,143.73,75,143.73s25.76,2,30.64,4,50.65,5.49,56.65,4.88"/><path class="cls-4" d="M175.33,140.48c-4.12,1-28.81,2-32.77,2.18A100.34,100.34,0,0,1,109,138.4c-17.22-5-29.87-1.83-29.87-1.83"/></g></g></g></g></svg>